<svg width="400" height="400" viewBox="0 0 400 400" fill="none" xmlns="http://www.w3.org/2000/svg">
<path d="M79.5529 104.092V138.183H64.0522V102.866C64.0522 99.7415 63.5195 97.2202 62.4542 95.3026C61.0692 92.6037 58.4414 91.2543 54.5707 91.2543C50.5579 91.2543 47.5039 92.6037 45.4087 95.3026C43.3491 97.9659 42.3192 101.783 42.3192 106.755V138.183H27.1914V59.9332H42.3192V87.6854C44.521 84.3118 47.06 81.968 49.9364 80.6541C52.8484 79.3047 55.9023 78.63 59.0984 78.63C62.685 78.63 65.9343 79.2514 68.8462 80.4943C71.7937 81.7372 74.2085 83.6371 76.0906 86.1939C77.6886 88.3601 78.6651 90.5973 79.0202 92.9055C79.3754 95.1783 79.5529 98.907 79.5529 104.092Z" fill="white"/>
<path d="M99.5643 80.1214V138.183H84.1701V80.1214H99.5643ZM99.5643 59.1875V73.1967H84.1701V59.1875H99.5643Z" fill="white"/>
<path d="M121.998 148.357C123.632 149.741 126.384 150.434 130.255 150.434C135.723 150.434 139.381 148.605 141.228 144.947C142.435 142.604 143.039 138.662 143.039 133.122V129.393C141.583 131.879 140.02 133.744 138.351 134.987C135.333 137.295 131.409 138.449 126.579 138.449C119.122 138.449 113.156 135.839 108.681 130.619C104.243 125.363 102.023 118.261 102.023 109.312C102.023 100.683 104.172 93.4382 108.468 87.5788C112.765 81.6839 118.855 78.7365 126.739 78.7365C129.651 78.7365 132.19 79.1804 134.356 80.0682C138.049 81.5952 141.032 84.4006 143.305 88.4844V80.1214H158.06V135.2C158.06 142.692 156.799 148.339 154.278 152.138C149.946 158.673 141.636 161.94 129.349 161.94C121.927 161.94 115.873 160.484 111.185 157.572C106.498 154.66 103.905 150.31 103.408 144.521H119.921C120.347 146.297 121.039 147.575 121.998 148.357ZM119.441 118.367C121.501 123.268 125.194 125.718 130.521 125.718C134.072 125.718 137.073 124.386 139.523 121.723C141.973 119.024 143.199 114.745 143.199 108.886C143.199 103.381 142.027 99.1911 139.683 96.3146C137.375 93.4382 134.267 92 130.361 92C125.034 92 121.359 94.5036 119.335 99.5107C118.27 102.174 117.737 105.459 117.737 109.365C117.737 112.739 118.305 115.739 119.441 118.367Z" fill="white"/>
<path d="M214.932 104.092V138.183H199.431V102.866C199.431 99.7415 198.899 97.2202 197.833 95.3026C196.449 92.6037 193.821 91.2543 189.95 91.2543C185.937 91.2543 182.883 92.6037 180.788 95.3026C178.728 97.9659 177.699 101.783 177.699 106.755V138.183H162.571V59.9332H177.699V87.6854C179.9 84.3118 182.439 81.968 185.316 80.6541C188.228 79.3047 191.282 78.63 194.478 78.63C198.064 78.63 201.314 79.2514 204.226 80.4943C207.173 81.7372 209.588 83.6371 211.47 86.1939C213.068 88.3601 214.044 90.5973 214.4 92.9055C214.755 95.1783 214.932 98.907 214.932 104.092Z" fill="white"/>
<path d="M271.216 121.137C270.826 124.582 269.032 128.08 265.836 131.631C260.865 137.277 253.904 140.1 244.956 140.1C237.569 140.1 231.053 137.721 225.407 132.962C219.76 128.204 216.937 120.462 216.937 109.738C216.937 99.6882 219.476 91.9822 224.554 86.62C229.668 81.2578 236.291 78.5767 244.423 78.5767C249.253 78.5767 253.603 79.4822 257.473 81.2933C261.344 83.1044 264.54 85.9631 267.061 89.8693C269.334 93.3139 270.808 97.3089 271.483 101.854C271.873 104.518 272.033 108.353 271.962 113.36H232.225C232.438 119.184 234.267 123.268 237.711 125.612C239.806 127.067 242.328 127.795 245.275 127.795C248.4 127.795 250.939 126.908 252.892 125.132C253.958 124.173 254.899 122.842 255.716 121.137H271.216ZM256.195 103.346C255.946 99.3331 254.721 96.2969 252.52 94.2372C250.353 92.142 247.654 91.0945 244.423 91.0945C240.907 91.0945 238.173 92.1953 236.22 94.397C234.302 96.5987 233.095 99.5817 232.598 103.346H256.195Z" fill="white"/>
<path d="M303.797 94.1307C297.689 94.1307 293.587 96.1193 291.492 100.097C290.32 102.334 289.734 105.778 289.734 110.43V138.183H274.446V80.1214H288.935V90.2422C291.279 86.3714 293.321 83.7259 295.061 82.3054C297.902 79.9261 301.595 78.7365 306.14 78.7365C306.424 78.7365 306.655 78.7543 306.833 78.7898C307.046 78.7898 307.49 78.8075 308.164 78.843V94.397C307.206 94.2905 306.353 94.2195 305.608 94.1839C304.862 94.1484 304.258 94.1307 303.797 94.1307Z" fill="white"/>
</svg>
