<svg width="1920" height="1080" viewBox="0 0 1920 1080" xmlns="http://www.w3.org/2000/svg"><path d="M 0,1080 C 0,1080 0,98 0,98 C 59.29110143295118,106.07515727388392 118.58220286590236,114.15031454776783 170,115 C 221.41779713409764,115.84968545223217 264.9622899693417,109.4738990828126 301,102 C 337.0377100306583,94.5261009171874 365.5686372567309,85.95408912098183 418,88 C 470.4313627432691,90.04591087901817 546.7631610037348,102.70974443326008 594,106 C 641.2368389962652,109.29025556673992 659.3787187283297,103.20693314597779 712,106 C 764.6212812716703,108.79306685402221 851.7219640829466,120.4625229828288 902,115 C 952.2780359170534,109.5374770171712 965.7334249398834,86.94297492270698 1010,81 C 1054.2665750601166,75.05702507729302 1129.3443361575203,85.76557732634329 1181,101 C 1232.6556638424797,116.23442267365671 1260.889230430035,135.99471577191986 1310,133 C 1359.110769569965,130.00528422808014 1429.0987421223385,104.25555958597728 1486,107 C 1542.9012578776615,109.74444041402272 1586.7158010806104,140.98304588417102 1626,134 C 1665.2841989193896,127.01695411582897 1700.0380535552206,81.81225687733857 1752,75 C 1803.9619464447794,68.18774312266143 1873.1319846985084,99.76792660647469 1904,110 C 1934.8680153014916,120.23207339352531 1927.4340076507458,109.11603669676265 1920,98 C 1920,98 1920,1080 1920,1080 Z" fill="#000000" opacity="0.05454545454545454"/><path d="M 0,1080 C 0,1080 0,196 0,196 C 51.11923061671857,200.13455397880068 102.23846123343714,204.26910795760136 156,207 C 209.76153876656286,209.73089204239864 266.16538568297,211.05812214839526 313,205 C 359.83461431703,198.94187785160474 397.09999603468276,185.4984034488176 441,177 C 484.90000396531724,168.5015965511824 535.4346301782988,164.94826405633418 590,167 C 644.5653698217012,169.05173594366582 703.1614832521216,176.70854032584552 761,190 C 818.8385167478784,203.29145967415448 875.9194368132149,222.2175746402837 913,218 C 950.0805631867851,213.7824253597163 967.1607694950189,186.4211611130196 1007,175 C 1046.839230504981,163.5788388869804 1109.4374852067097,168.09778090763797 1166,183 C 1222.5625147932903,197.90221909236203 1273.0892896781431,223.1877152564286 1321,232 C 1368.9107103218569,240.8122847435714 1414.2053560807185,233.1513580666476 1470,218 C 1525.7946439192815,202.8486419333524 1592.0892859989826,180.20685247698106 1647,170 C 1701.9107140010174,159.79314752301894 1745.4374999233507,162.02123202542816 1799,170 C 1852.5625000766493,177.97876797457184 1916.160714307614,191.70821942130624 1938,197 C 1959.839285692386,202.29178057869376 1939.919642846193,199.14589028934688 1920,196 C 1920,196 1920,1080 1920,1080 Z" fill="#000000" opacity="0.10909090909090909"/><path d="M 0,1080 C 0,1080 0,294 0,294 C 42.35544047656845,306.6334695803618 84.7108809531369,319.2669391607236 126,313 C 167.2891190468631,306.7330608392764 207.51191666402082,281.5657129374675 267,269 C 326.4880833359792,256.4342870625325 405.2414523907798,256.47020908940647 452,271 C 498.7585476092202,285.52979091059353 513.5222737728602,314.5534507049067 564,320 C 614.4777262271398,325.4465492950933 700.669452517779,307.3159880909668 760,296 C 819.330547482221,284.6840119090332 851.7999161560242,280.182596931226 888,279 C 924.2000838439758,277.817403068774 964.1308828581243,279.9536241841292 1012,291 C 1059.8691171418757,302.0463758158708 1115.6765524114783,322.00290633225734 1173,322 C 1230.3234475885217,321.99709366774266 1289.1629074959621,302.0347504868415 1336,291 C 1382.8370925040379,279.9652495131585 1417.6718176046732,277.85809172037676 1467,289 C 1516.3281823953268,300.14190827962324 1580.1498220853455,324.5328826316516 1632,326 C 1683.8501779146545,327.4671173683484 1723.7288940539452,306.0103777530169 1777,296 C 1830.2711059460548,285.9896222469831 1896.934601698873,287.4256063562809 1923,289 C 1949.065398301127,290.5743936437191 1934.5326991505635,292.28719682185954 1920,294 C 1920,294 1920,1080 1920,1080 Z" fill="#000000" opacity="0.16363636363636364"/><path d="M 0,1080 C 0,1080 0,392 0,392 C 40.12778875242533,407.044793095606 80.25557750485066,422.08958619121194 128,420 C 175.74442249514934,417.91041380878806 231.1054787330226,398.68644833075814 281,399 C 330.8945212669774,399.31355166924186 375.32250756305905,419.1646204857554 425,423 C 474.67749243694095,426.8353795142446 529.604491014741,414.65506972622006 583,402 C 636.395508985259,389.34493027377994 688.2595283779767,376.21510060936436 737,374 C 785.7404716220233,371.78489939063564 831.357395473352,380.4845278363226 886,396 C 940.642604526648,411.5154721636774 1004.3108897286156,433.8467880453452 1056,423 C 1107.6891102713844,412.1532119546548 1147.3990456121858,368.12831998229643 1194,357 C 1240.6009543878142,345.87168001770357 1294.0929278226413,367.6399320254691 1349,388 C 1403.9070721773587,408.3600679745309 1460.2292430972482,427.31195191582725 1499,426 C 1537.7707569027518,424.68804808417275 1558.9900997883665,403.1122603112216 1600,397 C 1641.0099002116335,390.8877396887784 1701.8103577492861,400.2390068392865 1767,393 C 1832.1896422507139,385.7609931607135 1901.7684692144896,361.93171233163247 1928,359 C 1954.2315307855104,356.06828766836753 1937.1157653927553,374.03414383418374 1920,392 C 1920,392 1920,1080 1920,1080 Z" fill="#000000" opacity="0.21818181818181817"/><path d="M 0,1080 C 0,1080 0,490 0,490 C 33.650392287062814,487.5338279033242 67.30078457412563,485.06765580664836 125,485 C 182.69921542587437,484.93234419335164 264.44725399056034,487.26320467673065 322,486 C 379.55274600943966,484.73679532326935 412.91019946363303,479.87952548642926 456,475 C 499.08980053636697,470.12047451357074 551.9119481549079,465.2186933775523 600,464 C 648.0880518450921,462.7813066224477 691.4420079167353,465.24570100336155 734,473 C 776.5579920832647,480.75429899663845 818.3200201781506,493.7985026090016 867,495 C 915.6799798218494,496.2014973909984 971.2779113706631,485.56028856063205 1017,481 C 1062.722088629337,476.43971143936795 1098.5683343391972,477.9603431484701 1159,477 C 1219.4316656608028,476.0396568515299 1304.448751272547,472.5983388454876 1356,465 C 1407.551248727453,457.4016611545124 1425.6366605706157,445.6463014695793 1460,457 C 1494.3633394293843,468.3536985304207 1545.0046064449898,502.8164552761952 1598,499 C 1650.9953935550102,495.1835447238048 1706.3449136494257,453.0878774256398 1761,456 C 1815.6550863505743,458.9121225743602 1869.615738957307,506.8320350212458 1896,520 C 1922.384261042693,533.1679649787542 1921.1921305213464,511.5839824893771 1920,490 C 1920,490 1920,1080 1920,1080 Z" fill="#000000" opacity="0.2727272727272727"/><path d="M 0,1080 C 0,1080 0,589 0,589 C 52.89204089972641,594.4099168496141 105.78408179945282,599.8198336992282 160,594 C 214.21591820054718,588.1801663007718 269.75571370191517,571.1305820527016 321,574 C 372.24428629808483,576.8694179472984 419.1930633928863,599.6578380899654 466,611 C 512.8069366071137,622.3421619100346 559.4720327265397,622.2380655874373 599,612 C 638.5279672734603,601.7619344125627 670.9188057009544,581.3898995602858 723,575 C 775.0811942990456,568.6101004397142 846.852744469643,576.2023361714193 897,575 C 947.147255530357,573.7976638285807 975.6702164204742,563.8007557540366 1027,566 C 1078.3297835795258,568.1992442459634 1152.4663898484607,582.5946408124348 1207,600 C 1261.5336101515393,617.4053591875652 1296.4642241856827,637.8206809962239 1333,625 C 1369.5357758143173,612.1793190037761 1407.6767134088088,566.1226352026692 1456,553 C 1504.3232865911912,539.8773647973308 1562.8289221790822,559.688778193099 1611,574 C 1659.1710778209178,588.311221806901 1697.0075978748625,597.1222520249349 1756,601 C 1814.9924021251375,604.8777479750651 1895.1406863214677,603.8222137071615 1926,601 C 1956.8593136785323,598.1777862928385 1938.429656839266,593.5888931464192 1920,589 C 1920,589 1920,1080 1920,1080 Z" fill="#000000" opacity="0.32727272727272727"/><path d="M 0,1080 C 0,1080 0,687 0,687 C 49.965921096182655,674.8998744452474 99.93184219236531,662.7997488904947 145,660 C 190.0681578076347,657.2002511095053 230.2385523267215,663.7008788832685 286,668 C 341.7614476732785,672.2991211167315 413.11394850074896,674.3967355764311 461,674 C 508.88605149925104,673.6032644235689 533.3056536702826,670.7121788110071 574,682 C 614.6943463297174,693.2878211889929 671.6634368181205,718.7545491795405 725,714 C 778.3365631818795,709.2454508204595 828.0405990572355,674.269624470831 873,660 C 917.9594009427645,645.730375529169 958.1741669529372,652.1669529371351 1013,655 C 1067.8258330470628,657.8330470628649 1137.2627331310157,657.0625637806288 1188,658 C 1238.7372668689843,658.9374362193712 1270.7749005229994,661.5827919403497 1321,677 C 1371.2250994770006,692.4172080596503 1439.6376647769864,720.6062684579726 1498,710 C 1556.3623352230136,699.3937315420274 1604.6744403690552,649.9921342277598 1640,655 C 1675.3255596309448,660.0078657722402 1697.6645737467927,719.4251946309877 1751,722 C 1804.3354262532073,724.5748053690123 1888.6672646437737,670.3070872482892 1922,655 C 1955.3327353562263,639.6929127517108 1937.6663676781131,663.3464563758554 1920,687 C 1920,687 1920,1080 1920,1080 Z" fill="#000000" opacity="0.3818181818181818"/><path d="M 0,1080 C 0,1080 0,785 0,785 C 48.79361450384957,767.233658839094 97.58722900769914,749.4673176781881 144,749 C 190.41277099230086,748.5326823218119 234.44469847305305,765.3643881263413 282,779 C 329.55530152694695,792.6356118736587 380.6339771000885,803.0751298164466 428,809 C 475.3660228999115,814.9248701835534 519.0193931265928,816.3350926078721 578,805 C 636.9806068734072,793.6649073921279 711.2884503935408,769.5844997520655 763,766 C 814.7115496064592,762.4155002479345 843.8268052992444,779.3269083838661 881,789 C 918.1731947007556,798.6730916161339 963.4043284094814,801.10786671247 1023,801 C 1082.5956715905186,800.89213328753 1156.5558810628302,798.2416247662541 1204,801 C 1251.4441189371698,803.7583752337459 1272.3721473391975,811.9256342225136 1322,801 C 1371.6278526608025,790.0743657774864 1449.9555295803807,760.0558383436911 1495,764 C 1540.0444704196193,767.9441616563089 1551.8057343392793,805.851012402722 1600,807 C 1648.1942656607207,808.148987597278 1732.8215330625019,772.540112045421 1793,770 C 1853.1784669374981,767.459887954579 1888.9081334107138,797.988539415594 1906,806 C 1923.0918665892862,814.011460584406 1921.545933294643,799.505730292203 1920,785 C 1920,785 1920,1080 1920,1080 Z" fill="#000000" opacity="0.43636363636363634"/><path d="M 0,1080 C 0,1080 0,883 0,883 C 53.475594085599894,892.6190792942172 106.95118817119979,902.2381585884343 152,910 C 197.0488118288002,917.7618414115657 233.67084140080084,923.66644494048 274,913 C 314.32915859919916,902.33355505952 358.3654462255971,875.0960616496457 417,863 C 475.6345537744029,850.9039383503543 548.8673736968107,853.9493084609378 609,851 C 669.1326263031893,848.0506915390622 716.1650589871599,839.1067045066035 761,847 C 805.8349410128401,854.8932954933965 848.4723903545497,879.6238735126483 897,893 C 945.5276096454503,906.3761264873517 999.945379594641,908.3978014428031 1050,906 C 1100.054620405359,903.6021985571969 1145.7460912668862,896.784920716139 1191,884 C 1236.2539087331138,871.215079283861 1281.0702553378144,852.4625156926407 1326,863 C 1370.9297446621856,873.5374843073593 1415.9728873818563,913.3650165132979 1474,914 C 1532.0271126181437,914.6349834867021 1603.0381951347604,876.0774182541678 1649,870 C 1694.9618048652396,863.9225817458322 1715.8743320791027,890.3253104700318 1759,894 C 1802.1256679208973,897.6746895299682 1867.4644765488279,878.6213398657052 1898,873 C 1928.5355234511721,867.3786601342948 1924.267761725586,875.1893300671475 1920,883 C 1920,883 1920,1080 1920,1080 Z" fill="#000000" opacity="0.4909090909090909"/><path d="M 0,1080 C 0,1080 0,981 0,981 C 40.376118788368004,992.9249182851679 80.75223757673601,1004.8498365703357 130,995 C 179.247762423264,985.1501634296643 237.3671684814239,953.5255720038249 288,954 C 338.6328315185761,954.4744279961751 381.7790884975685,987.0478754143652 438,996 C 494.2209115024315,1004.9521245856348 563.516477528302,990.2829263387137 616,977 C 668.483522471698,963.7170736612863 704.1550013892237,951.8204192307803 740,966 C 775.8449986107763,980.1795807692197 811.8635169148034,1020.4353967381655 866,1018 C 920.1364830851966,1015.5646032618345 992.3909309515632,970.4379938165578 1047,954 C 1101.6090690484368,937.5620061834422 1138.5727592789447,949.8126279956031 1187,956 C 1235.4272407210553,962.1873720043969 1295.3180319326589,962.3114942010301 1340,961 C 1384.6819680673411,959.6885057989699 1414.1551129904203,956.9413952002765 1455,959 C 1495.8448870095797,961.0586047997235 1548.0615161056608,967.9229249978641 1598,974 C 1647.9384838943392,980.0770750021359 1695.5988225869378,985.3669048082673 1759,993 C 1822.4011774130622,1000.6330951917327 1901.5431935465895,1010.6094557690666 1931,1009 C 1960.4568064534105,1007.3905442309334 1940.2284032267053,994.1952721154667 1920,981 C 1920,981 1920,1080 1920,1080 Z" fill="#000000" opacity="0.5454545454545454"/></svg>